<?xml version="1.0" encoding="UTF-8"?>
<svg xmlns="http://www.w3.org/2000/svg" xmlns:xlink="http://www.w3.org/1999/xlink" width="32" height="32" viewBox="0 0 32 32">
<path fill-rule="nonzero" fill="currentcolor" fill-opacity="1" d="M 4.792969 19.160156 C 5.046875 20.035156 5.402344 20.878906 5.851562 21.671875 L 4.574219 23.28125 C 4.15625 23.808594 4.203125 24.558594 4.671875 25.035156 L 6.871094 27.234375 C 7.347656 27.707031 8.097656 27.75 8.625 27.332031 L 10.222656 26.066406 C 11.046875 26.539062 11.921875 26.910156 12.835938 27.171875 L 13.074219 29.230469 C 13.152344 29.898438 13.714844 30.398438 14.382812 30.398438 L 17.496094 30.398438 C 18.164062 30.398438 18.726562 29.898438 18.804688 29.230469 L 19.035156 27.242188 C 20.011719 26.988281 20.953125 26.609375 21.832031 26.113281 L 23.378906 27.335938 C 23.90625 27.753906 24.65625 27.707031 25.132812 27.238281 L 27.332031 25.039062 C 27.804688 24.5625 27.847656 23.8125 27.429688 23.289062 L 26.226562 21.761719 C 26.726562 20.894531 27.117188 19.972656 27.378906 19.007812 L 29.234375 18.792969 C 29.902344 18.714844 30.402344 18.152344 30.402344 17.484375 L 30.402344 14.375 C 30.402344 13.707031 29.902344 13.144531 29.234375 13.066406 L 27.40625 12.851562 C 27.152344 11.898438 26.777344 10.984375 26.300781 10.128906 L 27.425781 8.707031 C 27.84375 8.179688 27.796875 7.429688 27.328125 6.957031 L 25.132812 4.761719 C 24.65625 4.285156 23.90625 4.246094 23.378906 4.660156 L 22 5.757812 C 21.101562 5.230469 20.144531 4.828125 19.136719 4.558594 L 18.929688 2.769531 C 18.851562 2.101562 18.289062 1.601562 17.621094 1.601562 L 14.507812 1.601562 C 13.839844 1.601562 13.277344 2.101562 13.199219 2.769531 L 12.992188 4.558594 C 11.960938 4.832031 10.972656 5.25 10.054688 5.796875 L 8.625 4.660156 C 8.097656 4.246094 7.347656 4.292969 6.871094 4.761719 L 4.671875 6.960938 C 4.199219 7.433594 4.15625 8.183594 4.574219 8.710938 L 5.773438 10.226562 C 5.292969 11.09375 4.925781 12.015625 4.6875 12.976562 L 2.769531 13.195312 C 2.101562 13.273438 1.601562 13.835938 1.601562 14.503906 L 1.601562 17.613281 C 1.601562 18.28125 2.101562 18.84375 2.769531 18.921875 Z M 16.066406 10.742188 C 18.902344 10.742188 21.210938 13.050781 21.210938 15.886719 C 21.210938 18.722656 18.902344 21.03125 16.066406 21.03125 C 13.230469 21.03125 10.921875 18.722656 10.921875 15.886719 C 10.921875 13.050781 13.230469 10.742188 16.066406 10.742188 Z M 16.066406 10.742188 "/>
</svg>
