<?xml version="1.0" encoding="UTF-8" standalone="no"?>
<svg xmlns:dc="http://purl.org/dc/elements/1.1/" xmlns:cc="http://creativecommons.org/ns#"
   xmlns:rdf="http://www.w3.org/1999/02/22-rdf-syntax-ns#" xmlns:svg="http://www.w3.org/2000/svg"
   xmlns="http://www.w3.org/2000/svg" xmlns:sodipodi="http://sodipodi.sourceforge.net/DTD/sodipodi-0.dtd"
   xmlns:inkscape="http://www.inkscape.org/namespaces/inkscape" width="160" height="160" version="1.1" id="svg106"
   sodipodi:docname="logo.svg" inkscape:version="1.0.1 (3bc2e813f5, 2020-09-07)">
   <metadata id="metadata112">
      <rdf:RDF>
         <cc:Work rdf:about="">
            <dc:format>image/svg+xml</dc:format>
            <dc:type rdf:resource="http://purl.org/dc/dcmitype/StillImage" />
         </cc:Work>
      </rdf:RDF>
   </metadata>
   <defs id="defs110" />
   <sodipodi:namedview pagecolor="#ffffff" bordercolor="#666666" borderopacity="1" objecttolerance="10"
      gridtolerance="10" guidetolerance="10" inkscape:pageopacity="0" inkscape:pageshadow="2"
      inkscape:window-width="1366" inkscape:window-height="768" id="namedview108" showgrid="false"
      inkscape:zoom="3.61875" inkscape:cx="83.868739" inkscape:cy="80" inkscape:window-x="0" inkscape:window-y="0"
      inkscape:window-maximized="1" inkscape:current-layer="g14" inkscape:document-rotation="0" />
   <g width="160" height="160" id="g14" transform="translate(-50 -64) scale(1.6)">
      <path fill="#178fd6"
         d="m 30.36193,76.585353 c 2.136682,-0.05533 3.877524,-0.623553 5.224655,-1.721688 1.345003,-1.096007 2.240962,-2.609136 2.683621,-4.52236 0.444787,-1.911095 0.681014,-5.186347 0.70868,-9.819371 0.02767,-4.635152 0.110665,-7.686947 0.248996,-9.157512 0.248996,-2.330345 0.715065,-4.205261 1.393951,-5.620494 0.678886,-1.415232 1.519512,-2.54529 2.519752,-3.392301 0.998111,-0.847012 2.275013,-1.491847 3.828576,-1.936634 C 48.025733,40.138331 49.745293,40 52.130971,40 h 2.332473 v 6.535607 h -1.28967 c -2.885798,0 -4.80115,0.521401 -5.743929,1.562076 -0.944907,1.038547 -1.41736,3.362507 -1.41736,6.971882 0,7.271953 -0.153228,11.864542 -0.459685,13.777766 -0.497991,2.966667 -1.351387,5.254449 -2.558059,6.865473 -1.206672,1.611024 -3.100742,3.039025 -5.682211,4.288265 3.053922,1.2769 5.26509,3.23268 6.637759,5.85459 1.372669,2.6219 2.062196,6.91016 2.062196,12.87755 0,5.409811 0.05533,8.629731 0.165997,9.655511 0.22133,1.88769 0.783166,3.20715 1.68551,3.95414 0.902344,0.75124 2.670852,1.12367 5.307653,1.12367 h 1.289671 v 6.53348 h -2.332473 c -2.7198,0 -4.690485,-0.22133 -5.909926,-0.66612 -1.777021,-0.63845 -3.245458,-1.66422 -4.411694,-3.09435 -1.166237,-1.43013 -1.921737,-3.24546 -2.268628,-5.4396 -0.346892,-2.19414 -0.534171,-5.78649 -0.561837,-10.77918 -0.02767,-4.996951 -0.263893,-8.450971 -0.70868,-10.366321 -0.442659,-1.91322 -1.338618,-3.42635 -2.683621,-4.53726 -1.345003,-1.10877 -3.085845,-1.68976 -5.222527,-1.74722 z"
         id="path86" style="stroke-width:0.999999" />
      <path fill="#178fd6"
         d="m 129.24579,76.585395 v 6.784611 c -2.13675,0.0556 -3.87757,0.63845 -5.22473,1.74723 -1.345,1.10878 -2.24097,2.62191 -2.6858,4.52448 -0.44259,1.90047 -0.67878,5.16082 -0.70648,9.795994 -0.0258,4.63516 -0.10857,7.68698 -0.249,9.1576 -0.24912,2.35792 -0.71498,4.24562 -1.3939,5.64817 -0.67903,1.40028 -1.51962,2.52603 -2.51979,3.37093 -1.00022,0.84502 -2.27509,1.48337 -3.82862,1.92818 -1.05546,0.30639 -2.77723,0.45742 -5.16302,0.45742 h -2.33229 v -6.53337 h 1.28954 c 2.88582,0 4.80128,-0.51293 5.74389,-1.55363 0.94288,-1.04062 1.41524,-3.38588 1.41524,-7.02079 0,-6.93783 0.12816,-11.336794 0.37464,-13.194674 0.44475,-3.07947 1.33224,-5.5375 2.66457,-7.38263 1.33212,-1.84513 3.21986,-3.28803 5.66074,-4.31381 -3.19006,-1.52802 -5.4395,-3.539146 -6.74417,-6.050388 -1.30236,-2.511244 -1.95578,-6.75481 -1.95578,-12.720087 0,-5.411934 -0.0698,-8.644626 -0.2089,-9.700204 -0.19295,-1.860025 -0.7429,-3.156079 -1.64315,-3.892427 -0.90011,-0.736348 -2.67069,-1.104513 -5.30762,-1.104513 h -1.28948 V 40 h 2.33244 c 2.71763,0 4.69052,0.221331 5.9099,0.66612 1.77713,0.610775 3.24548,1.638688 4.41174,3.081598 1.16628,1.442889 1.92172,3.260342 2.26864,5.452356 0.3469,2.192016 0.53418,5.786507 0.56179,10.781323 0.0258,4.994821 0.26393,8.442459 0.70659,10.347169 0.4448,1.900461 1.34076,3.398701 2.68566,4.509593 1.34932,1.108779 3.09021,1.6919 5.22681,1.747236 z"
         id="path88" style="stroke-width:1" />
      <circle fill="#178fd6" cx="100" cy="100" r="10" id="circle90" />
      <circle fill="#178fd6" cx="100" cy="60" r="10" id="circle92" />
      <circle fill="#178fd6" cx="60" cy="100" r="10" id="circle94" />
      <circle fill="#178fd6" cx="60" cy="60" r="10" id="circle96" />
      <line x1="98.585785" x2="61.414215" y1="98.585777" y2="61.414215" stroke="#178fd6" stroke-width="4"
         id="line100" />
      <line x1="61.414215" x2="98.585785" y1="98.585785" y2="61.414215" stroke="#178fd6" stroke-width="4" id="line98" />
      <g id="g102" />
   </g>
</svg>